# xmcd CD database file
#
# Track frame offsets:
#	150
#	18931
#	68938
#	94792
#	119952
#	148008
#
# Disc length: 2453 seconds
#
# Revision: 0
# Processed by: cddbd v1.5.1PL0 Copyright (c) Steve Scherf et al.
# Submitted via: CDex 1.51
#
DISCID=56099306
DTITLE=Gerry Mulligan  And The Concert Jazz Band - Gerry Mulligan  And The Concert Jazz Band
DYEAR=1900
DGENRE=Jazz
TTITLE0=Blueport
TTITLE1=Body And Soul
TTITLE2=Black Nightgown
TTITLE3=Come Rain or Come Shine
TTITLE4=Lady Chatterlay's Mother
TTITLE5=Let My People Be
EXTD=
EXTT0=
EXTT1=
EXTT2=
EXTT3=
EXTT4=
EXTT5=
PLAYORDER=
